# 3ds Max Wavefront OBJ Exporter v0.99 - (c)2007 guruware
# File Created: 04.11.2025 00:46:27

mtllib techo.mtl

#
# object Pyramid001
#

v  -0.0017 185.6349 -3.9667
v  -120.1612 33.6869 115.9899
v  120.1579 33.6869 115.9899
v  120.1579 33.6869 -123.8204
v  -120.1612 33.6869 -123.8204
# 5 vertices

vn 0.0000 0.5855 0.8107
vn 0.7844 0.6203 -0.0000
vn 0.0000 0.5852 -0.8109
vn -0.7844 0.6203 -0.0000
# 4 vertex normals

vt 2.0000 3.4903 0.5000
vt -0.3570 0.5097 -0.0382
vt 4.3570 0.5097 -0.0382
vt -0.1527 0.5097 1.0893
vt 4.1527 0.5097 1.0893
vt -0.3570 0.5097 1.0382
vt 4.3570 0.5097 1.0382
vt -0.1527 0.5097 -0.0893
vt 4.1527 0.5097 -0.0893
# 9 texture coords

o Pyramid001
g Pyramid001
usemtl Material__32
s 4
f 1/1/1 2/2/1 3/3/1 
s 2
f 1/1/2 3/4/2 4/5/2 
s 16
f 1/1/3 4/6/3 5/7/3 
s 32
f 1/1/4 5/8/4 2/9/4 
# 4 faces

#
# object Box007
#

v  15.1648 33.5266 35.7017
v  15.1648 33.5266 111.4731
v  17.9855 33.5266 35.7017
v  17.9855 33.5266 111.4731
v  17.9855 0.1970 111.4731
v  15.1648 0.1970 111.4731
v  17.9855 0.1970 35.7017
v  15.1648 0.1970 35.7017
# 8 vertices

vn 0.0000 1.0000 -0.0000
vn 0.0000 -1.0000 -0.0000
vn 0.0000 0.0000 1.0000
vn 1.0000 0.0000 -0.0000
vn 0.0000 0.0000 -1.0000
vn -1.0000 0.0000 -0.0000
# 6 vertex normals

vt 3.9568 0.3300 1.0000
vt 3.9568 0.0006 1.0000
vt 4.0419 0.3300 1.0000
vt 4.0419 0.0006 1.0000
vt 2.9581 0.0006 -0.0000
vt 3.0432 0.0006 -0.0000
vt 2.9581 0.3300 -0.0000
vt 3.0432 0.3300 -0.0000
vt 4.0419 1.0000 0.0006
vt 3.9568 1.0000 0.0006
vt 4.0419 -0.0000 0.0006
vt 3.9568 -0.0000 0.0006
vt 2.3102 1.0000 0.5774
vt 0.0044 1.0000 0.5774
vt 2.3102 -0.0000 0.5774
vt 0.0044 -0.0000 0.5774
vt 3.0432 1.0000 0.3300
vt 2.9581 1.0000 0.3300
vt 3.0432 -0.0000 0.3300
vt 2.9581 -0.0000 0.3300
vt 6.9956 1.0000 0.5653
vt 4.6898 1.0000 0.5653
vt 6.9956 -0.0000 0.5653
vt 4.6898 -0.0000 0.5653
# 24 texture coords

o Box007
g Box007
usemtl Material__37
s 2
f 6/10/5 7/11/5 8/12/5 
f 9/13/5 8/12/5 7/11/5 
s 4
f 10/14/6 11/15/6 12/16/6 
f 13/17/6 12/16/6 11/15/6 
s 8
f 9/18/7 7/19/7 10/20/7 
f 11/21/7 10/20/7 7/19/7 
s 16
f 8/22/8 9/23/8 12/24/8 
f 10/25/8 12/24/8 9/23/8 
s 32
f 6/26/9 8/27/9 13/28/9 
f 12/29/9 13/28/9 8/27/9 
s 64
f 7/30/10 6/31/10 11/32/10 
f 13/33/10 11/32/10 6/31/10 
# 12 faces

#
# object Box008
#

v  39.8833 33.5266 15.1769
v  115.6546 33.5266 15.1769
v  39.8833 33.5266 12.3563
v  115.6546 33.5266 12.3563
v  115.6546 0.1970 12.3563
v  115.6546 0.1970 15.1769
v  39.8833 0.1970 12.3563
v  39.8833 0.1970 15.1769
# 8 vertices

vn 0.0000 1.0000 -0.0000
vn 0.0000 -1.0000 -0.0000
vn 1.0000 0.0000 -0.0000
vn -0.0000 0.0000 -1.0000
vn -1.0000 0.0000 0.0000
vn 0.0000 0.0000 1.0000
# 6 vertex normals

vt 4.7023 0.4193 1.0000
vt 6.9874 0.4193 1.0000
vt 4.7023 0.4315 1.0000
vt 6.9874 0.4315 1.0000
vt 0.0126 0.4315 -0.0000
vt 0.0126 0.4193 -0.0000
vt 2.2977 0.4315 -0.0000
vt 2.2977 0.4193 -0.0000
vt 3.0206 1.0000 0.9982
vt 2.9348 1.0000 0.9982
vt 3.0206 -0.0000 0.9982
vt 2.9348 -0.0000 0.9982
vt 2.2977 1.0000 0.4315
vt 0.0126 1.0000 0.4315
vt 2.2977 -0.0000 0.4315
vt 0.0126 -0.0000 0.4315
vt 4.0652 1.0000 0.6718
vt 3.9794 1.0000 0.6718
vt 4.0652 -0.0000 0.6718
vt 3.9794 -0.0000 0.6718
vt 6.9874 1.0000 0.4193
vt 4.7023 1.0000 0.4193
vt 6.9874 -0.0000 0.4193
vt 4.7023 -0.0000 0.4193
# 24 texture coords

o Box008
g Box008
usemtl Material__37
s 2
f 14/34/11 15/35/11 16/36/11 
f 17/37/11 16/36/11 15/35/11 
s 4
f 18/38/12 19/39/12 20/40/12 
f 21/41/12 20/40/12 19/39/12 
s 8
f 17/42/13 15/43/13 18/44/13 
f 19/45/13 18/44/13 15/43/13 
s 16
f 16/46/14 17/47/14 20/48/14 
f 18/49/14 20/48/14 17/47/14 
s 32
f 14/50/15 16/51/15 21/52/15 
f 20/53/15 21/52/15 16/51/15 
s 64
f 15/54/16 14/55/16 19/56/16 
f 21/57/16 19/56/16 14/55/16 
# 12 faces

#
# object Box009
#

v  -116.0396 33.5266 15.2454
v  -40.2682 33.5266 15.2454
v  -116.0396 33.5266 12.4248
v  -40.2682 33.5266 12.4248
v  -40.2682 0.1970 12.4248
v  -40.2682 0.1970 15.2454
v  -116.0396 0.1970 12.4248
v  -116.0396 0.1970 15.2454
# 8 vertices

vn 0.0000 1.0000 -0.0000
vn 0.0000 -1.0000 -0.0000
vn 1.0000 0.0000 -0.0000
vn -0.0000 0.0000 -1.0000
vn -1.0000 0.0000 0.0000
vn 0.0000 0.0000 1.0000
# 6 vertex normals

vt 0.0000 0.4190 1.0000
vt 2.2851 0.4190 1.0000
vt 0.0000 0.4312 1.0000
vt 2.2851 0.4312 1.0000
vt 4.7149 0.4312 -0.0000
vt 4.7149 0.4190 -0.0000
vt 7.0000 0.4312 -0.0000
vt 7.0000 0.4190 -0.0000
vt 3.0185 1.0000 0.3264
vt 2.9327 1.0000 0.3264
vt 3.0185 -0.0000 0.3264
vt 2.9327 -0.0000 0.3264
vt 7.0000 1.0000 0.4312
vt 4.7149 1.0000 0.4312
vt 7.0000 -0.0000 0.4312
vt 4.7149 -0.0000 0.4312
vt 4.0673 1.0000 0.0000
vt 3.9815 1.0000 0.0000
vt 4.0673 -0.0000 0.0000
vt 3.9815 -0.0000 0.0000
vt 2.2851 1.0000 0.4190
vt 0.0000 1.0000 0.4190
vt 2.2851 -0.0000 0.4190
vt 0.0000 -0.0000 0.4190
# 24 texture coords

o Box009
g Box009
usemtl Material__37
s 2
f 22/58/17 23/59/17 24/60/17 
f 25/61/17 24/60/17 23/59/17 
s 4
f 26/62/18 27/63/18 28/64/18 
f 29/65/18 28/64/18 27/63/18 
s 8
f 25/66/19 23/67/19 26/68/19 
f 27/69/19 26/68/19 23/67/19 
s 16
f 24/70/20 25/71/20 28/72/20 
f 26/73/20 28/72/20 25/71/20 
s 32
f 22/74/21 24/75/21 29/76/21 
f 28/77/21 29/76/21 24/75/21 
s 64
f 23/78/22 22/79/22 27/80/22 
f 29/81/22 27/80/22 22/79/22 
# 12 faces

#
# object Box010
#

v  -116.0396 33.5266 -21.5181
v  -40.2682 33.5266 -21.5181
v  -116.0396 33.5266 -24.3388
v  -40.2682 33.5266 -24.3388
v  -40.2682 0.1970 -24.3388
v  -40.2682 0.1970 -21.5181
v  -116.0396 0.1970 -24.3388
v  -116.0396 0.1970 -21.5181
# 8 vertices

vn 0.0000 1.0000 -0.0000
vn 0.0000 -1.0000 -0.0000
vn 1.0000 0.0000 -0.0000
vn -0.0000 0.0000 -1.0000
vn -1.0000 0.0000 0.0000
vn 0.0000 0.0000 1.0000
# 6 vertex normals

vt 0.0000 0.5788 1.0000
vt 2.2851 0.5788 1.0000
vt 0.0000 0.5910 1.0000
vt 2.2851 0.5910 1.0000
vt 4.7149 0.5910 -0.0000
vt 4.7149 0.5788 -0.0000
vt 7.0000 0.5910 -0.0000
vt 7.0000 0.5788 -0.0000
vt 4.1373 1.0000 0.3264
vt 4.0514 1.0000 0.3264
vt 4.1373 -0.0000 0.3264
vt 4.0514 -0.0000 0.3264
vt 7.0000 1.0000 0.5910
vt 4.7149 1.0000 0.5910
vt 7.0000 -0.0000 0.5910
vt 4.7149 -0.0000 0.5910
vt 2.9486 1.0000 0.0000
vt 2.8627 1.0000 0.0000
vt 2.9486 -0.0000 0.0000
vt 2.8627 -0.0000 0.0000
vt 2.2851 1.0000 0.5788
vt 0.0000 1.0000 0.5788
vt 2.2851 -0.0000 0.5788
vt 0.0000 -0.0000 0.5788
# 24 texture coords

o Box010
g Box010
usemtl Material__37
s 2
f 30/82/23 31/83/23 32/84/23 
f 33/85/23 32/84/23 31/83/23 
s 4
f 34/86/24 35/87/24 36/88/24 
f 37/89/24 36/88/24 35/87/24 
s 8
f 33/90/25 31/91/25 34/92/25 
f 35/93/25 34/92/25 31/91/25 
s 16
f 32/94/26 33/95/26 36/96/26 
f 34/97/26 36/96/26 33/95/26 
s 32
f 30/98/27 32/99/27 37/100/27 
f 36/101/27 37/100/27 32/99/27 
s 64
f 31/102/28 30/103/28 35/104/28 
f 37/105/28 35/104/28 30/103/28 
# 12 faces

#
# object Box011
#

v  40.3019 33.5266 -21.5181
v  116.0733 33.5266 -21.5181
v  40.3019 33.5266 -24.3388
v  116.0733 33.5266 -24.3388
v  116.0733 0.1970 -24.3388
v  116.0733 0.1970 -21.5181
v  40.3019 0.1970 -24.3388
v  40.3019 0.1970 -21.5181
# 8 vertices

vn 0.0000 1.0000 -0.0000
vn 0.0000 -1.0000 -0.0000
vn 1.0000 0.0000 -0.0000
vn -0.0000 0.0000 -1.0000
vn -1.0000 0.0000 0.0000
vn 0.0000 0.0000 1.0000
# 6 vertex normals

vt 4.7149 0.5788 1.0000
vt 7.0000 0.5788 1.0000
vt 4.7149 0.5910 1.0000
vt 7.0000 0.5910 1.0000
vt 0.0000 0.5910 -0.0000
vt 0.0000 0.5788 -0.0000
vt 2.2851 0.5910 -0.0000
vt 2.2851 0.5788 -0.0000
vt 4.1372 1.0000 1.0000
vt 4.0514 1.0000 1.0000
vt 4.1372 -0.0000 1.0000
vt 4.0514 -0.0000 1.0000
vt 2.2851 1.0000 0.5910
vt 0.0000 1.0000 0.5910
vt 2.2851 -0.0000 0.5910
vt 0.0000 -0.0000 0.5910
vt 2.9486 1.0000 0.6736
vt 2.8628 1.0000 0.6736
vt 2.9486 -0.0000 0.6736
vt 2.8628 -0.0000 0.6736
vt 7.0000 1.0000 0.5788
vt 4.7149 1.0000 0.5788
vt 7.0000 -0.0000 0.5788
vt 4.7149 -0.0000 0.5788
# 24 texture coords

o Box011
g Box011
usemtl Material__37
s 2
f 38/106/29 39/107/29 40/108/29 
f 41/109/29 40/108/29 39/107/29 
s 4
f 42/110/30 43/111/30 44/112/30 
f 45/113/30 44/112/30 43/111/30 
s 8
f 41/114/31 39/115/31 42/116/31 
f 43/117/31 42/116/31 39/115/31 
s 16
f 40/118/32 41/119/32 44/120/32 
f 42/121/32 44/120/32 41/119/32 
s 32
f 38/122/33 40/123/33 45/124/33 
f 44/125/33 45/124/33 40/123/33 
s 64
f 39/126/34 38/127/34 43/128/34 
f 45/129/34 43/128/34 38/127/34 
# 12 faces

#
# object Box012
#

v  15.0645 33.5266 -118.2968
v  15.0645 33.5266 -42.5254
v  17.8851 33.5266 -118.2968
v  17.8851 33.5266 -42.5254
v  17.8851 0.1970 -42.5254
v  15.0645 0.1970 -42.5254
v  17.8851 0.1970 -118.2968
v  15.0645 0.1970 -118.2968
# 8 vertices

vn 0.0000 1.0000 -0.0000
vn 0.0000 -1.0000 -0.0000
vn 0.0000 0.0000 1.0000
vn 1.0000 0.0000 -0.0000
vn 0.0000 0.0000 -1.0000
vn -1.0000 0.0000 -0.0000
# 6 vertex normals

vt 3.9538 0.9995 1.0000
vt 3.9538 0.6701 1.0000
vt 4.0389 0.9995 1.0000
vt 4.0389 0.6701 1.0000
vt 2.9611 0.6701 -0.0000
vt 3.0462 0.6701 -0.0000
vt 2.9611 0.9995 -0.0000
vt 3.0462 0.9995 -0.0000
vt 4.0389 1.0000 0.6701
vt 3.9538 1.0000 0.6701
vt 4.0389 -0.0000 0.6701
vt 3.9538 -0.0000 0.6701
vt 6.9965 1.0000 0.5770
vt 4.6907 1.0000 0.5770
vt 6.9965 -0.0000 0.5770
vt 4.6907 -0.0000 0.5770
vt 3.0462 1.0000 0.9995
vt 2.9611 1.0000 0.9995
vt 3.0462 -0.0000 0.9995
vt 2.9611 -0.0000 0.9995
vt 2.3093 1.0000 0.5648
vt 0.0035 1.0000 0.5648
vt 2.3093 -0.0000 0.5648
vt 0.0035 -0.0000 0.5648
# 24 texture coords

o Box012
g Box012
usemtl Material__37
s 2
f 46/130/35 47/131/35 48/132/35 
f 49/133/35 48/132/35 47/131/35 
s 4
f 50/134/36 51/135/36 52/136/36 
f 53/137/36 52/136/36 51/135/36 
s 8
f 49/138/37 47/139/37 50/140/37 
f 51/141/37 50/140/37 47/139/37 
s 16
f 48/142/38 49/143/38 52/144/38 
f 50/145/38 52/144/38 49/143/38 
s 32
f 46/146/39 48/147/39 53/148/39 
f 52/149/39 53/148/39 48/147/39 
s 64
f 47/150/40 46/151/40 51/152/40 
f 53/153/40 51/152/40 46/151/40 
# 12 faces

#
# object Box013
#

v  -17.9537 33.5266 -118.4133
v  -17.9537 33.5266 -42.6420
v  -15.1330 33.5266 -118.4133
v  -15.1330 33.5266 -42.6420
v  -15.1330 0.1970 -42.6420
v  -17.9537 0.1970 -42.6420
v  -15.1330 0.1970 -118.4133
v  -17.9537 0.1970 -118.4133
# 8 vertices

vn 0.0000 1.0000 -0.0000
vn 0.0000 -1.0000 -0.0000
vn 0.0000 0.0000 1.0000
vn 1.0000 0.0000 -0.0000
vn 0.0000 0.0000 -1.0000
vn -1.0000 0.0000 -0.0000
# 6 vertex normals

vt 2.9581 1.0000 1.0000
vt 2.9581 0.6706 1.0000
vt 3.0431 1.0000 1.0000
vt 3.0431 0.6706 1.0000
vt 3.9569 0.6706 -0.0000
vt 4.0419 0.6706 -0.0000
vt 3.9569 1.0000 -0.0000
vt 4.0419 1.0000 -0.0000
vt 3.0431 1.0000 0.6706
vt 2.9581 1.0000 0.6706
vt 3.0431 -0.0000 0.6706
vt 2.9581 -0.0000 0.6706
vt 7.0000 1.0000 0.4347
vt 4.6942 1.0000 0.4347
vt 7.0000 -0.0000 0.4347
vt 4.6942 -0.0000 0.4347
vt 4.0419 1.0000 1.0000
vt 3.9569 1.0000 1.0000
vt 4.0419 -0.0000 1.0000
vt 3.9569 -0.0000 1.0000
vt 2.3058 1.0000 0.4226
vt 0.0000 1.0000 0.4226
vt 2.3058 -0.0000 0.4226
vt 0.0000 -0.0000 0.4226
# 24 texture coords

o Box013
g Box013
usemtl Material__37
s 2
f 54/154/41 55/155/41 56/156/41 
f 57/157/41 56/156/41 55/155/41 
s 4
f 58/158/42 59/159/42 60/160/42 
f 61/161/42 60/160/42 59/159/42 
s 8
f 57/162/43 55/163/43 58/164/43 
f 59/165/43 58/164/43 55/163/43 
s 16
f 56/166/44 57/167/44 60/168/44 
f 58/169/44 60/168/44 57/167/44 
s 32
f 54/170/45 56/171/45 61/172/45 
f 60/173/45 61/172/45 56/171/45 
s 64
f 55/174/46 54/175/46 59/176/46 
f 61/177/46 59/176/46 54/175/46 
# 12 faces

#
# object Box014
#

v  -17.9227 33.5266 35.8466
v  -17.9227 33.5266 111.6179
v  -15.1021 33.5266 35.8466
v  -15.1021 33.5266 111.6179
v  -15.1021 0.1970 111.6179
v  -17.9227 0.1970 111.6179
v  -15.1021 0.1970 35.8466
v  -17.9227 0.1970 35.8466
# 8 vertices

vn 0.0000 1.0000 -0.0000
vn 0.0000 -1.0000 -0.0000
vn 0.0000 0.0000 1.0000
vn 1.0000 0.0000 -0.0000
vn 0.0000 0.0000 -1.0000
vn -1.0000 0.0000 -0.0000
# 6 vertex normals

vt 2.9590 0.3294 1.0000
vt 2.9590 0.0000 1.0000
vt 3.0440 0.3294 1.0000
vt 3.0440 0.0000 1.0000
vt 3.9560 0.0000 -0.0000
vt 4.0410 0.0000 -0.0000
vt 3.9560 0.3294 -0.0000
vt 4.0410 0.3294 -0.0000
vt 3.0440 1.0000 0.0000
vt 2.9590 1.0000 0.0000
vt 3.0440 -0.0000 0.0000
vt 2.9590 -0.0000 0.0000
vt 2.3058 1.0000 0.4349
vt 0.0000 1.0000 0.4349
vt 2.3058 -0.0000 0.4349
vt 0.0000 -0.0000 0.4349
vt 4.0410 1.0000 0.3294
vt 3.9560 1.0000 0.3294
vt 4.0410 -0.0000 0.3294
vt 3.9560 -0.0000 0.3294
vt 7.0000 1.0000 0.4227
vt 4.6942 1.0000 0.4227
vt 7.0000 -0.0000 0.4227
vt 4.6942 -0.0000 0.4227
# 24 texture coords

o Box014
g Box014
usemtl Material__37
s 2
f 62/178/47 63/179/47 64/180/47 
f 65/181/47 64/180/47 63/179/47 
s 4
f 66/182/48 67/183/48 68/184/48 
f 69/185/48 68/184/48 67/183/48 
s 8
f 65/186/49 63/187/49 66/188/49 
f 67/189/49 66/188/49 63/187/49 
s 16
f 64/190/50 65/191/50 68/192/50 
f 66/193/50 68/192/50 65/191/50 
s 32
f 62/194/51 64/195/51 69/196/51 
f 68/197/51 69/196/51 64/195/51 
s 64
f 63/198/52 62/199/52 67/200/52 
f 69/201/52 67/200/52 62/199/52 
# 12 faces

